<?xml version="1.0" standalone="no"?>
<!DOCTYPE svg PUBLIC "-//W3C//DTD SVG 20010904//EN"
 "http://www.w3.org/TR/2001/REC-SVG-20010904/DTD/svg10.dtd">
<svg version="1.0" xmlns="http://www.w3.org/2000/svg"
 width="512.000000pt" height="512.000000pt" viewBox="0 0 512.000000 512.000000"
 preserveAspectRatio="xMidYMid meet">
<metadata>
Created by potrace 1.14, written by Peter Selinger 2001-2017
</metadata>
<g transform="translate(0.000000,512.000000) scale(0.100000,-0.100000)"
fill="#000000" stroke="none">
<path d="M912 3371 c-439 -762 -437 -759 -415 -866 9 -43 100 -208 415 -755
l403 -700 498 0 498 0 -12 23 c-7 12 -201 349 -432 750 -256 445 -417 734
-415 745 3 10 192 341 420 737 228 396 420 730 427 743 l12 22 -498 0 -498 0
-403 -699z"/>
<path d="M2821 4048 c7 -13 199 -347 427 -743 228 -396 417 -727 420 -737 2
-11 -159 -300 -415 -745 -231 -401 -425 -738 -432 -750 l-12 -23 498 0 498 0
403 700 c439 762 437 758 415 865 -9 43 -100 208 -415 755 l-403 700 -498 0
-498 0 12 -22z"/>
</g>
</svg>
